<?xml version="1.0" encoding="utf-8"?>
<!-- Generator: Adobe Illustrator 27.5.0, SVG Export Plug-In . SVG Version: 6.00 Build 0)  -->
<svg version="1.1" xmlns="http://www.w3.org/2000/svg" xmlns:xlink="http://www.w3.org/1999/xlink" x="0px" y="0px"
	 viewBox="0 0 500 500" style="enable-background:new 0 0 500 500;" xml:space="preserve">
<g id="OBJECTS">
	<g>
		<path style="fill:#FFC9A3;" d="M172.581,123.272c-18.5-5.965-38.206,5.136-52.344,18.477
			c-11.775,11.112-22.382,26.22-19.801,42.204c1.577,9.768,7.956,18.461,8.409,28.345c1.097,23.929-31.8,40.117-28.651,63.864
			c1.404,10.585,9.939,18.823,18.997,24.476c15.929,9.941,37.299,14.3,53.251,4.395c14.32-8.892,20.495-26.54,32.635-38.234
			c8.438-8.128,19.796-13.159,31.486-13.948c10.424-0.703,21.547,1.73,30.922-2.88c8.356-4.109,13.282-12.917,16.7-21.579
			c6.372-16.148,8.383-36.788-4.065-48.888c-9.664-9.394-26.335-11.776-31.539-24.209c-2.084-4.978-1.788-10.676-3.694-15.725
			c-2.67-7.073-9.413-11.982-16.602-14.321C201.096,122.91,193.404,122.767,172.581,123.272z"/>
		<g>
			<path d="M349.455,186.542C349.382,186.477,349.322,186.447,349.455,186.542L349.455,186.542z"/>
			<g>
				<path d="M210.789,119.253c-0.026-0.034-0.053-0.067-0.078-0.102C210.76,119.226,210.785,119.253,210.789,119.253z"/>
				<path d="M462.201,189.032c-0.57-0.532-1.371-0.644-2.1-0.823c-1.524-0.344-3.089-0.396-4.644-0.451
					c-1.38,0.027-2.757,0.14-4.128,0.317c-0.19-0.304-0.374-0.609-0.545-0.905c-1.882-3.039-2.679-5.898-3.712-9.515
					c-1.404-4.569-1.937-8.519-2.308-12.977c-0.465-5.377-0.56-10.783-1.137-16.15c-0.211-1.926-0.623-3.823-1.101-5.699
					c-0.403-1.649-0.89-3.279-1.596-4.826c-1.218-2.768-2.741-5.563-5.221-7.394c-0.967-0.818-2.055-1.478-3.301-1.764
					c-3.64-0.629-7.375-0.126-11.026,0.182c-4.097,0.365-8.206,0.587-12.304,0.935c-1.262,0.158-2.524,0.317-3.765,0.475
					c0.008-0.02,0.013-0.041,0.022-0.061c-5.797,0.563-11.552,1.504-17.324,2.274c-3.831,0.566-6.703,1.064-10.358,1.364
					c-0.789,0.061-1.579,0.127-2.371,0.144c-1.014,0.015-2.027-0.069-3.032-0.201c-0.289-0.043-0.574-0.107-0.853-0.194
					c-0.206-0.051-0.405-0.123-0.601-0.205c-0.114-0.075-0.227-0.149-0.341-0.224c-1.242-1.635,0-3.503,1.408-5.176
					c1.339-1.389,2.314-1.95,3.804-3.086c2.454-1.798,5.149-3.214,7.855-4.59c2.686-1.384,5.184-2.573,7.677-3.517
					c4.822-1.937,9.824-3.366,14.838-4.708c3.013-0.872,6.128-1.373,9.133-2.258c0.958-0.29,1.73-1.128,1.806-2.148
					c0.086-0.997-0.194-1.995-0.499-2.936c-0.473-1.381-0.994-2.747-1.624-4.064c-1.585-3.154-3.418-6.207-5.674-8.929
					c-1.99-2.342-4.341-4.363-6.742-6.273c-1.778-1.333-3.731-2.408-5.757-3.315c-2.699-1.229-5.841-2.116-8.755-1.137
					c-3.433,1.153-6.148,3.764-8.224,6.655c-4.814,6.705-1.11,6.094-0.589,6.05c0.859-0.073,1.677-0.368,2.497-0.616
					c2.452-0.836,4.499-1.676,5.984-2.307c0.257-0.108,2.367-0.869,1.474-1.614c-1.186-0.99-12.199,5.566-9.986,2.106
					c2.683-4.195,5.673-7.991,10.19-9.063c-0.068,0.009-0.135,0.018-0.203,0.027c0.622-0.122,1.255-0.134,1.886-0.124
					c0.233-0.001,0.465,0.013,0.697,0.037c0.462,0.071,0.92,0.16,1.374,0.272c2.599,0.717,4.474,1.67,6.995,3.195
					c2.527,1.591,5.044,3.917,7.452,6.404c1.717,1.886,3.159,4.099,4.648,6.656c1.743,2.832,3.857,8.046,3.33,9.204
					c-0.314,0.592-1.576,0.785-2.933,1.112c-1.9,0.426-3.797,0.87-5.684,1.352c-6.101,1.614-12.172,3.389-17.99,5.856
					c-3.571,1.522-7.003,3.351-10.408,5.21c-1.471,0.866-2.883,1.83-4.251,2.852c-1.319,0.981-2.692,1.939-3.737,3.225
					c-0.772,0.957-1.413,2.034-1.774,3.214c-0.275,1.217-0.004,2.624,0.914,3.508c0.872,0.698,2.038,0.855,3.114,0.99
					c1.203,0.141,2.418,0.185,3.627,0.096c3.8-0.224,7.559-0.842,11.32-1.402c2.55-0.365,5.28-0.748,7.883-1.106
					c0.072,0.014,0.15,0.021,0.238,0.015c4.415-0.195,8.795-0.869,13.185-1.348c4.106-0.304,8.217-0.544,12.319-0.9
					c2.675-0.245,5.356-0.535,8.047-0.464c1.371,0.088,1.946-0.047,2.906,0.267c1.033,0.212,1.613,0.737,2.738,1.577
					c0.673,0.431,1.881,1.836,2.67,3.042c0.71,1.073,1.25,2.243,1.81,3.398c1.211,2.621,2.159,6.502,2.642,9.971
					c0.473,4.23,0.722,10.822,1.137,15.848c0.251,2.617,0.502,5.242,0.967,7.831c0.412,2.228,1.036,4.409,1.671,6.583
					c0.89,3.322,2.077,6.576,3.911,9.493c-1.86,0.306-3.704,0.722-5.518,1.204c-2.576,0.714-5.023,1.808-7.486,2.831
					c-3.986,1.779-8.504,3.511-13.354,4.405c-1.616,0.27-2.738,0.525-4.011,0.572c-1.494,0.103-2.991-0.029-4.485-0.082
					c-0.326-0.002-0.537,0.186-0.625,0.424c-11.018-0.011-22.036-0.653-32.985-1.865c-7.2-0.77-15.853-1.697-22.166-4.583
					c-11.533-5.274-7.403-9.191-13.918-3.673c-1.09,0.869-2.78,2.201-4.085,2.531c-1.254,0.419-3.01,0.54-4.909,0.438
					c-0.342-0.625-0.69-1.246-1.05-1.86c0.324,0.184,0.676,0.285,1.063,0.169c1.263-0.547,1.851-1.96,2.709-2.964
					c1.409-1.914,2.84-3.813,4.178-5.778c1.569-2.307,2.819-4.815,3.777-7.433c1.104-2.724,1.734-5.737,1.081-8.652
					c-0.504-2.745-1.633-5.381-3.269-7.642c-0.887-1.145-1.894-2.193-2.926-3.208c-2.405-2.156-5.209-3.799-7.963-5.464
					c-4.492-2.761-9.777-5.464-12.612-9.134c-1.372-1.589-1.719-3.592-1.656-4.942c0.31-1.469,0.671-1.977,1.198-2.712
					c0.253-0.302,0.546-0.561,0.879-0.775c-0.038,0.029-0.076,0.059-0.114,0.088c0.414-0.271,0.853-0.489,1.319-0.654
					c-0.045,0.019-0.09,0.038-0.135,0.057c5.612-2.472,14.496,4.746,18.785,9.225c2.449,2.509,4.76,5.387,6.595,7.844
					c0.658,0.855,1.313,1.713,2.001,2.544c0.561,0.65,1.068,1.422,1.898,1.748c0.306,0.166,0.647,0.196,0.984,0.244
					c0.25,0.067,0.493-0.057,0.737-0.102c0.102-0.029,0.191-0.08,0.266-0.155c0.89-0.96,1.319-2.245,1.834-3.427
					c1.023-2.738,1.967-5.542,2.376-8.444c0.644-5.053-0.428-7.91-4.039-11.563c-3.373-3.569-7.398-6.42-11.37-9.275
					c-4.211-3.167-8.633-5.684-10.984-10.098c-0.129-0.299-0.241-0.603-0.329-0.916c-0.083-0.306-0.142-0.617-0.184-0.93
					c-0.032-0.301-0.022-0.6,0.033-0.897c-0.008,0.057-0.015,0.113-0.023,0.17c0.016-0.063,0.061-0.2,0.087-0.286
					c0.072-0.098,0.144-0.196,0.216-0.295c0.106-0.087,0.213-0.173,0.319-0.26c0.158-0.095,0.316-0.19,0.474-0.285l0.469-0.178
					l-0.17,0.023c0.335-0.07,0.672-0.094,1.011-0.071c0.649,0.077,0.649-0.043,1.233,0.152c1.118,0.275,2.648,1.203,4.035,2.004
					c1.152,0.687,3.191,2.291,3.758,2.705c4.108,3.33,7.766,7.202,11.012,11.372c0.572,0.725,2.119,2.967,3.006,4.238
					c0.919,1.286,1.825,2.669,3.195,3.518c0.549,0.323,1.133,0.653,1.771,0.738c0.924,0.095,1.895-0.234,2.557-0.891
					c0.484-0.402,0.736-1.002,1.064-1.525c0.602-1.064,1.104-2.18,1.603-3.295c1.348-2.958,2.504-5.976,3.919-9.303
					c1.298-3.14,2.553-6.301,3.634-9.523c0.814-2.323,1.533-4.689,1.899-7.129c0.485-3.969,0.955-8.019,0.443-12.006
					c-0.713-4.202-1.449-8.493-3.292-12.37c-1.933-3.997-3.921-8.033-6.965-11.318c-2.333-2.673-5.059-4.968-8.045-6.88
					c-3.584-2.438-7.547-4.388-11.757-5.464c-3.766-0.882-7.692-0.977-11.538-0.718c-3.17,0.381-6.294,1.194-9.281,2.316
					c-1.915,0.774-3.629,1.955-5.325,3.118c-2.941,2.036-5.571,4.485-8,7.103c-1.858,1.969-3.451,4.171-5.311,6.136
					c-0.685,0.609-0.761,0.711-1.437,1.086c-0.144,0.059-0.289,0.119-0.433,0.178c-0.099-0.003-0.198-0.006-0.297-0.009
					c-0.093-0.038-0.186-0.077-0.279-0.115c-0.948-0.725-1.424-1.53-2.384-2.855c-1.849-2.618-3.706-5.234-5.784-7.678
					c-1.709-2.026-3.568-3.987-5.913-5.276c-2.01-1.136-4.179-2.063-6.47-2.427c-3.043-0.343-6.162-0.125-9.137,0.598
					c-3.203,0.908-6.049,2.702-8.784,4.551c-3.569,2.667-6.714,5.867-9.591,9.258c-2.485,3.037-4.542,6.387-6.448,9.809
					c-1.919,3.445-3.489,7.071-4.783,10.794c-1.554,4.358-2.849,8.808-3.601,13.379c-0.568,3.402-1.043,6.821-1.22,10.267
					c-0.167,3.518-0.081,7.04,0.104,10.556c0.34,6.091,0.838,12.224,2.258,18.171c1.492,6.094,4.33,11.794,7.994,16.87
					c2.331,3.244,5.012,6.091,7.083,9.056c0.71,0.999,1.446,1.995,1.947,3.12c-0.146-0.378,0.132,0.344,0.18,0.438
					c0.263,0.703,0.462,1.432,0.588,2.173c0.043,0.29,0.072,0.582,0.081,0.875c0.001,0.263-0.015,0.524-0.044,0.785
					c-0.592,3.684-2.343,6.654-4.974,9.212c-2.118,2.118-4.558,3.869-6.845,5.793c-0.223,0.182-0.455,0.379-0.691,0.584
					c-0.506-2.461-1.283-4.867-2.387-7.127c-3.77-7.889-11.615-12.821-15.495-20.044c-0.826-1.489-1.066-2.48-1.431-4.362
					c-0.512-2.441-0.576-4.876-0.636-7.77c-0.053-5.049,0.264-10.094,0.231-15.143c0.035-3.21-0.104-6.422-0.64-9.591
					c-0.338-2.153-0.756-4.303-1.529-6.348c-1.111-2.984-2.469-5.879-4.271-8.512c-2.758-4.327-6.239-8.212-10.396-11.235
					c-1.738-1.218-3.478-2.453-5.355-3.45c-2.781-1.312-5.784-2.361-8.888-2.394c-2.029,0.009-4.065,0.341-5.982,1.011
					c-2.837,1.045-6.673,3.076-8.752,4.115c-0.633,0.302-0.96,0.359-1.373,0.31c-0.097-0.054-0.193-0.108-0.29-0.162
					c-0.08-0.109-0.185-0.26-0.255-0.39c-0.318-0.728-0.519-1.497-0.742-2.258c-0.987-3.742-1.84-7.579-3.684-11.012
					c-7.062-13.215-20.559-20.895-35.527-20.531c-3.997,0.054-7.993,0.661-11.796,1.909c-3.046,0.927-6.058,2.011-8.848,3.561
					c-2.241,1.242-4.333,2.725-6.399,4.234c-2.954,2.123-5.814,4.396-8.396,6.964c-2.311,2.327-4.217,5.008-6.128,7.662
					c-3.236,4.615-5.889,9.593-8.282,14.688c-2.409,5.105-4.386,10.411-5.541,15.947c-0.777,3.813-1.05,7.704-0.985,11.591
					c-0.031,3.203,0.218,6.409,0.898,9.543c0.766,3.514,1.662,7.004,2.893,10.386c2.1,6.223,5.28,11.07,6.575,17.463
					c0.341,1.62,0.483,3.279,0.343,5.311c-0.094,0.947-0.064,0.966-0.247,1.772c-0.061,0.333-0.222,0.663-0.147,1.006
					c0.076,0.294,0.359,0.499,0.66,0.502c0.243-0.008,0.469-0.126,0.591-0.339c0.446-1.039,0.819-2.108,1.236-3.159
					c1.194-2.987,2.078-5.109,3.406-7.946c2.752-5.959,5.771-11.807,9.554-17.185c1.576-2.278,2.871-3.94,4.788-6.124
					c1.458-1.637,3.132-3.055,4.804-4.466c2.332-1.825,4.422-3.439,7.398-4.092c1.786-0.359,2.987-0.615,4.837,0.077
					c0.204,0.085,0.406,0.177,0.601,0.281c0.219,0.104,0.426,0.227,0.623,0.368c0.214,0.162,0.409,0.344,0.584,0.548
					c1.311,2.06,1.219,4.816,0.721,7.164c-1.966,8.269-9.804,15.785-16.307,21.721c-5.172,4.671-10.456,9.22-15.88,13.597
					c-5.109,4.28-10.749,8.036-15.054,13.18c-0.937,1.163-1.588,2.524-2.181,3.887c-0.573,1.294-1.035,2.646-1.225,4.053
					c-0.281,1.886,0.009,3.794,0.255,5.669c0.388,3.066,1.941,5.802,3.444,8.447c1.768,3.01,3.642,5.961,5.239,9.068
					c4.252,7.969,7.057,15.821,7.949,24.578c0.11,0.866,0.215,1.733,0.316,2.6c0.088,0.553,0.062,1.142,0.31,1.655
					c0.072,0.283,0.35,0.458,0.603,0.563c0.807,0.146,1.174-0.837,1.46-1.424c1.544-3.285,3.047-6.591,4.78-9.783
					c3.07-5.679,6.419-11.202,9.628-16.803c3.846-6.687,7.867-13.277,11.52-20.074c2.676-4.962,5.087-10.066,7.296-15.253
					c1.971-4.687,3.682-9.477,5.457-14.24c2.283-6.319,5.292-13.833,7.547-19.439c1.877-4.541,4.083-8.934,6.343-13.294
					c2.028-3.937,4.146-7.83,6.527-11.566c2.316-3.728,4.393-6.609,7.261-9.731c0.187-0.195,0.386-0.376,0.595-0.547
					c0.073-0.048,0.156-0.096,0.186-0.118c0.009-0.003,0.017-0.006,0.026-0.008c0.08,1.451-0.966,4.425-1.839,6.191
					c-1.056,2.313-2.178,4.595-3.324,6.865c-3.268,6.427-6.552,12.847-9.884,19.242c-4.062,8.001-8.465,15.839-12.175,24.015
					c-2.001,4.486-3.81,9.057-5.864,13.519c-4.263,9.15-8.984,18.075-13.734,26.979c-2.696,5.04-5.095,10.234-7.846,15.244
					c-2.405,4.399-5.2,8.566-7.761,12.873c-0.224,0.396-0.457,0.798-0.576,1.239c-0.089,0.282-0.064,0.62,0.119,0.857
					c0.139,0.206,0.426,0.291,0.662,0.226c0.83-0.169,1.485-0.793,2.156-1.274c0.976-0.763,1.939-1.542,2.916-2.304
					c2.148-1.71,4.493-3.433,7.068-5.18c5.603-3.983,11.158-7.264,17.423-9.276c7.345-2.518,15.02-4.117,22.078-7.429
					c2.099-1.016,4.005-2.38,5.897-3.732c1.784-1.299,3.297-2.904,4.762-4.543c2.523-2.827,4.63-5.979,6.569-9.226
					c3.976-6.482,6.822-13.584,9.406-20.713c1.062-2.903,1.98-5.856,2.667-8.871c0.443-1.885,0.797-3.806,0.964-5.738
					c0.013-0.054,0.022-0.111,0.021-0.172c0.003-0.068,0.005-0.135,0.008-0.203c0.031-0.417,0.055-0.834,0.067-1.252
					c-0.006-0.005-0.012-0.011-0.018-0.016c0.012-0.33,0.024-0.661,0.035-0.992c1.383,2.817,2.375,5.631,3.266,9.07
					c0.544,2.002,0.245,4.216,3.123,2.906c2.566-1.198,4.895-2.861,7.221-4.465c1.712-1.282,3.383-2.634,4.872-4.173
					c1.314-1.478,2.535-3.066,3.515-4.787c1.385-2.859,2.435-5.888,3.169-8.978c0.672-3.042,1.109-6.141,1.283-9.252
					c0.408,1.119,0.809,2.253,1.195,3.42c0.689,2.008,1.447,3.998,1.933,6.068c3.02,12.864-0.564,9.388,9.372,17.474
					c1.99,1.619,3.214,3.01,4.17,5.353c0.426,1.083,0.76,2.656,1.099,4.281c-2.672-1.385-5.538-2.351-8.451-3.097
					c-3.361-0.924-6.829-1.474-10.319-1.484c-4.515-0.068-8.871,1.642-12.763,3.81c-2.611,1.535-4.908,3.566-7.058,5.685
					c-1.832,1.876-3.336,4.034-4.885,6.14c-3.082,4.259-5.537,8.915-7.755,13.671c-3.048,6.426-5.401,13.205-6.593,20.228
					c-1.07,5.986-1.162,12.133-0.404,18.163c0.098,0.596,0.205,1.191,0.318,1.784c-4.115-0.654-8.282-0.975-12.445-0.773
					c-5.389,0.28-10.783,1.01-15.979,2.495c-10.047,2.874-19.314,8.324-26.786,15.621c-3.206,3.177-6,6.73-8.602,10.411
					c-2.951,4.107-5.697,8.361-8.053,12.839c-0.894,1.654-1.72,3.345-2.497,5.057c-0.361,0.819-0.717,1.642-1,2.492
					c-0.2,0.617-0.375,1.323-0.129,1.951c1.017,2.215,6.244-1.316,7.732-2.021c1.757-0.988,4.942-2.495,6.154-3.023
					c2.807-1.093,5.66-2.073,8.567-2.865c3.266-0.83,8.222-1.754,10.778-2.1c4.117-0.569,8.278-0.934,12.437-0.809
					c1.895,0.095,2.945,0.384,5.012,0.721c3.511,0.627,5.922,1.369,8.674,3.43c1.057,0.848,2.073,1.495,3.176,2.81
					c0.059,0.081,0.186,0.255,0.239,0.347c0.209,0.308,0.396,0.631,0.576,0.957c0.242,0.453,0.497,0.901,0.703,1.372
					c0.239,0.569,0.426,1.161,0.505,1.774c0.047,0.501,0.056,1.007,0.009,1.509c-0.331,1.812-0.957,2.298-2.639,3.781
					c-0.814,0.569-3.065,1.493-4.93,2.054c-5.485,1.398-11.884,1.023-18.077,1.564c-3.768,0.236-7.51,0.759-11.215,1.474
					c-3.294,0.611-6.591,1.274-9.771,2.343c-4.17,1.409-8.25,3.092-12.141,5.155c-4.462,2.246-8.614,5.129-12.07,8.752
					c-1.88,2.019-3.474,4.34-4.671,6.825c-1.016,2.543-1.504,5.306-1.582,8.038c0.094,3.152,0.575,6.288,1.126,9.389
					c0.63,2.697,1.367,5.368,2.105,8.037c0.573,2.025,1.187,4.038,1.847,6.036c0.224,0.596,0.343,1.316,0.812,1.772
					c0.324,0.299,0.841,0.382,1.167,0.044c0.27-0.257,0.381-0.576,0.501-0.917c0.598-2.552,1.328-5.279,2.323-7.1
					c0.739-1.429,1.68-2.736,2.577-4.067c1.031-1.399,1.445-2.069,2.693-3.339c5.423-5.06,10.713-8.771,16.962-12.782
					c3.104-2.071,7.945-4.313,10.626-5.58c3.054-1.356,6.248-2.345,9.46-3.251c4.874-1.322,8.884-1.97,13.89-1.515
					c0.808,0.01,2.779,0.813,4.189,1.809c0.339,0.243,0.851,0.858,0.992,1.939c-0.007,0.027-0.005,0.2,0,0.323
					c-0.068,0.435-0.212,0.855-0.371,1.266c-0.303,0.687-0.608,1.377-0.999,2.019c-0.451,0.673-0.551,0.841-1.305,1.605
					c-2.748,2.814-5.408,4.789-8.255,6.924c-6.515,4.899-13.151,9.636-19.606,14.614c-2.593,1.965-5.127,4.004-7.48,6.254
					c-1.18,1.14-2.426,2.226-3.437,3.525c-0.976,1.218-1.804,2.541-2.666,3.84c-0.837,1.352-1.769,2.662-2.342,4.155
					c-0.767,2.003-1.377,4.086-1.684,6.211c-0.165,1.88-0.033,3.795,0.3,5.65c0.534,1.831,1.363,3.596,2.399,5.196
					c0.892,1.291,2.012,2.4,3.089,3.533c2.505,2.634,5.356,4.903,8.127,7.246c3.013,2.539,5.985,5.143,8.683,8.02
					c2.601,2.711,4.692,5.278,6.64,7.958c2.398,3.131,6.047,10.306,6.059,10.334c-3.687,4.601-3.027,10.77,0.198,11.49
					c0.846,0.22,1.694-0.34,2.285-0.898c0.653-0.698,0.762-1.732,0.897-2.641c0.259-2.694-0.548-5.274-1.545-7.761
					c0.343-0.363,0.721-0.74,1.147-1.176c1.309-1.302,2.673-2.546,4.058-3.765c3.139-2.714,5.686-4.98,8.86-7.106
					c4.726-3.128,9.704-5.895,14.073-9.534c3.978-3.124,7.4-6.855,10.65-10.713c4.092-4.659,7.819-9.613,11.416-14.659
					c3.964-5.396,7.926-10.81,11.206-16.659c0.755-1.38,1.447-2.791,2.099-4.221c1.348,0.05,2.696,0.087,4.044,0.114
					c-1.971,3.248-4.175,6.358-6.517,9.343c-1.121,1.365-3.151,4.062-4.802,5.79c-1.841,2.001-3.834,3.854-5.772,5.759
					c-1.249,1.297-2.132,2.94-2.721,4.632c-0.527,1.597-0.734,3.284-1.002,4.939c-0.468,3.203-0.958,6.405-1.154,9.639
					c-0.574,6.779,0.205,13.601,1.327,20.287c0.537,3.468,1.243,6.917,2.295,10.267c0.721,1.953,1.628,3.858,2.767,5.605
					c-1.028,0.374-2.118,0.634-2.977,1.342c-0.864,0.757-1.771,1.76-1.48,2.982c0.437,1.442,1.612,2.534,2.779,3.426
					c3.822,2.92,10.781,4.656,15.774,5.752c55.259,12.136,124.112,3.825,134.66-1.803c3.468-1.85,5.307-5.619,6.434-9.228
					c1.609-5.104,3.125-10.263,4.071-15.536c1.58-9.523,1.813-19.209,1.916-28.844c0.035-4.325,0.053-8.649,0.052-12.974
					c-0.006-4.65-0.04-9.317-0.583-13.94c-0.299-2.088-0.53-4.218-1.228-6.219c-0.691-1.804-1.559-3.568-2.75-5.098
					c-0.914-1.098-2.008-2.023-3.12-2.911c-1.832-1.562-4.069-2.448-6.332-3.183c-0.593-0.191-1.188-0.373-1.786-0.544
					c1.244-0.241,2.486-0.497,3.717-0.798c0.979-0.256,2.016-0.46,2.873-1.019c1.717-1.164,0.083-2.768-1.268-3.304
					c-1.429-0.6-2.995-0.711-4.507-0.977c-1.765-0.229-3.534-0.462-5.313-0.544c-8.925-0.54-17.761,1.033-26.549,2.373
					c-0.983,0.16-1.967,0.319-2.951,0.48c-7.485-0.436-14.974-0.824-22.469-1.031c-2.521-0.082-5.042-0.155-7.564-0.217
					c1.364-1.311,2.72-2.631,4.03-3.996c4.703-4.866,8.795-10.284,12.674-15.818c4.864-6.859,9.428-13.921,13.921-21.026
					c4.7-7.373,9.256-14.837,13.595-22.428c4.067-6.896,7.856-13.963,11.042-21.313c1.702-3.976,3.208-8.036,4.389-12.197
					c1.01-3.654,1.72-7.377,2.313-11.119c1.14-7.514,1.599-15.263,0.163-22.768c-1.308-5.551-3.263-10.951-5.829-16.044
					c-0.611-1.199-1.22-2.401-1.848-3.593c1.285,0.037,2.569-0.041,3.827-0.313c2.986-0.625,6.019-3.712,7.777-5.006
					c0.104-0.087,0.216-0.162,0.335-0.226c0.062-0.039,0.129-0.067,0.194-0.098c0.128,0.069,0.249,0.15,0.359,0.246
					c-0.026-0.018-0.046-0.032-0.064-0.045c0.017,0.015,0.035,0.032,0.051,0.05c0.451,0.4,0.898,0.804,1.357,1.195
					c2.008,1.701,4.239,3.155,6.616,4.283c4.731,2.373,9.957,3.416,15.154,4.193c6.333,0.914,12.711,1.518,19.083,2.09
					c7.846,0.55,15.71,0.878,23.577,0.792c1.09-0.027,2.184-0.063,3.28-0.112c-0.062-0.088-0.118-0.18-0.17-0.275
					c0.677,0.006,1.353-0.01,2.03-0.068c2.847-0.29,6.616-1.049,9.915-2.08c3.395-1.062,6.628-2.567,9.95-3.831
					c3.061-1.237,6.265-2.098,9.529-2.595c0.296-0.038,0.671-0.094,1.097-0.155c0.716,1.042,1.487,2.055,2.529,2.778
					c1.295,0.856,2.801,1.498,4.353,1.654c1.598-0.064,3.324-0.617,4.249-2.004C462.991,191.347,463.386,190.142,462.201,189.032z
					 M252.584,184.439c3.159-2.528,6.417-5.238,8.093-9.019c0.932-1.987,1.71-4.214,1.36-6.434
					c-0.467-3.546-2.943-6.316-5.026-9.065c-2.011-2.485-3.683-4.423-5.411-6.912c-2.285-3.326-4.269-6.841-5.551-10.258
					c-2.702-6.919-3.262-13.618-3.828-20.846c-0.287-5.134-0.51-10.287-0.063-15.418c0.393-4.235,0.973-7.865,1.96-12.206
					c0.838-3.519,1.992-6.959,3.229-10.355c1.488-4.17,3.508-8.09,5.954-12.189c2.474-4.177,5.097-7.43,8.628-10.944
					c2.402-2.339,4.637-4.326,7.282-5.897c2.46-1.446,4.336-2.586,7.015-3.166c2.339-0.508,5.117-0.686,7.916-0.404
					c1.958,0.291,4.729,1.395,6.948,2.851c1.517,0.996,2.879,2.365,4.283,3.996c1.623,1.852,2.709,3.313,4.22,5.39
					c1.055,1.466,2.078,2.954,3.165,4.396c1.717,2.329,3.089,2.144,5.098,0.416c2.122-2.106,3.828-4.593,5.906-6.743
					c3.559-3.771,6.97-6.649,11.521-9.155c2.676-1.297,6.365-2.187,9.76-2.711c2.458-0.163,7.344-0.225,9.964,0.37
					c5.293,1.021,9.488,3.3,13.966,6.378c3.447,2.224,6.973,5.928,9.267,9.217c1.558,2.434,2.839,5.034,4.105,7.628
					c1.261,2.335,1.909,5.515,2.582,8.515c0.201,0.922,0.671,3.632,0.694,3.956c0.284,2.408,0.086,4.832-0.068,7.242
					c-0.231,2.437-0.332,3.927-0.869,6.198c-0.974,3.876-2.431,7.612-3.873,11.333c-1.17,2.903-2.391,5.784-3.588,8.676
					c-0.725,1.603-1.916,4.672-3.104,6.721c-0.971,1.87-2.144,2.163-4.007,0.749c-0.715-0.576-1.92-2.176-2.831-3.55
					c-1.516-2.226-3.124-4.387-4.88-6.429c-3.583-4.179-7.607-8.017-12.177-11.105c-1.314-0.897-2.737-1.629-4.189-2.275
					c-1.504-0.6-3.435-0.764-4.798,0.245c-1.355,0.827-1.424,2.266-1.07,3.663c0.716,2.881,3.209,5.288,5.417,7.154
					c4.462,3.566,9.795,7.017,13.79,10.314c2.475,2.111,5.053,4.577,6.565,6.936c1.322,2.114,1.371,5.498,0.923,7.918
					c-0.255,1.603-0.749,3.154-1.222,4.703c-0.7,2.052-1.099,3.417-2.053,5.123c-0.082,0.15-0.174,0.294-0.273,0.434
					c-0.03,0.032-0.059,0.065-0.088,0.097c-0.055,0.014-0.111,0.027-0.166,0.041c-0.581-0.066-0.594-0.18-1.061-0.437
					c-2.842-3.114-5.913-7.89-9.523-11.428c-1.677-1.802-3.539-3.415-5.486-4.916c-2.077-1.672-4.363-3.068-6.811-4.125
					c-1.892-0.834-4.026-1.363-6.098-1.088c-1.542,0.311-3.187,0.923-4.2,2.181c-0.731,0.932-1.251,2.066-1.418,3.242
					c-0.075,1.208,0.11,2.447,0.533,3.58c0.564,1.439,1.603,2.635,2.647,3.752c4.295,4.135,9.791,6.688,14.726,9.946
					c3.741,2.356,6.99,5.143,8.887,9.21c1.487,3.026,2.15,6.732,1.159,9.984c-1.044,3.235-2.005,5.585-3.805,8.479
					c-1.395,2.18-2.964,4.241-4.493,6.326c-0.924,1.181-1.298,1.965-2.219,2.773c-0.62-0.407-1.333-1.065-2.115-1.858
					c-0.85-0.824-1.678-1.67-2.504-2.519c-1.252-1.478-2.583-2.893-3.898-4.311c-2.349-2.494-4.93-4.746-7.621-6.862
					c-0.998-1.118-1.893-2.269-2.702-3.538c-0.823-1.368-1.565-2.846-2.193-4.263c-0.033-0.351-0.065-0.702-0.095-1.052
					c-0.508-5.724-1.121-11.454-2.35-17.074c-2.027-8.18-3.736-15.908-4.339-24.025c-0.72-8.45-0.336-16.941-0.631-25.409
					c-0.129-3.185-0.237-6.376-0.659-9.538c-0.282-1.98-0.53-4.007-1.439-5.815c-0.171-0.38-0.395-0.733-0.66-1.053
					c-0.278-0.432-0.984-0.564-1.271-0.063c-0.148,0.274-0.085,0.583-0.065,0.879c0.074,0.957,0.141,1.914,0.207,2.872
					c0.467,6.402,0.545,12.821,0.806,19.232c0.39,11.885,2.307,24.069,3.797,35.295c0.735,5.26,1.414,10.533,2.414,15.751
					c0.62,2.918,1.161,5.879,2.276,8.659c0.215,0.518,0.434,1.036,0.659,1.551c0.106,1.091,0.221,2.181,0.357,3.267
					c-2.257-1.477-4.68-2.683-7.139-3.792c-2.813-1.257-5.73-2.31-8.802-2.698c-2.751-0.398-5.519-0.805-8.305-0.79
					c-1.89,0.043-3.763,0.338-5.625,0.649c-3.769,0.631-7.197,2.419-10.489,4.283c-4.689,2.969-8.994,6.66-12.266,11.167
					c-1.611,2.091-2.73,4.468-3.692,6.912c-1.838,4.447-2.746,9.192-3.927,13.838c-0.226,0.795-0.479,1.972-0.723,2.904
					c-0.244-0.652-0.463-1.358-0.837-2.212c-0.706-1.733-1.549-3.411-2.516-5.015c-0.283-1.553-0.538-3.111-0.795-4.667
					c-0.026-0.173-0.058-0.346-0.087-0.519C249.938,186.564,251.248,185.485,252.584,184.439z M316.68,171.373
					c0.858,0.658,1.714,1.32,2.562,1.991c2.358,2.529,5.038,4.725,7.516,7.132c1.023,0.968,2.01,1.975,2.993,2.985
					c0.669,0.773,1.324,1.558,1.958,2.36c0.867,1.116,1.879,2.764,2.872,4.521c-3.09-0.355-6.282-1.216-8.153-2.293
					c-6.655-3.591-9.385-10.208-10.697-17.371C316.109,170.971,316.437,171.206,316.68,171.373z M315.397,168.684
					c-0.031-0.208-0.059-0.417-0.088-0.626c0.18,0.326,0.366,0.648,0.558,0.967C315.711,168.911,315.555,168.796,315.397,168.684z
					 M313.011,158.952c-0.436-1.667-0.766-3.364-1.127-5.048c-0.826-4.317-1.45-8.607-2.025-12.821
					c0.141,0.593,0.284,1.185,0.433,1.775c1.296,5.121,2.059,9.865,2.583,14.75C312.922,158.056,312.967,158.504,313.011,158.952z
					 M306.378,113.836c-0.055-0.593-0.11-1.19-0.16-1.795c-0.765-9.449-0.713-18.94-1.358-28.395
					c0.48,1.731,0.633,3.627,0.847,5.327C306.455,97.24,306.185,105.547,306.378,113.836z M247.592,189.958
					c-0.19-0.254-0.383-0.506-0.58-0.755c0.128-0.122,0.259-0.24,0.388-0.36C247.465,189.215,247.529,189.586,247.592,189.958z
					 M219.861,145.592c-0.791-2.48-1.703-4.914-2.681-7.322c-0.066-2.777-0.354-5.548-0.889-8.282
					c-0.751-3.777-1.847-7.579-4.014-10.805c-0.421-0.548-0.805-1.154-1.386-1.546c-1.218-0.728-2.116,0.007-2.389,1.273
					c-0.232,1.739,0.412,3.446,1.004,5.052c0.867,2.256,1.559,3.766,2.389,5.755c1.242,2.916,2.556,5.962,3.831,9.189
					c0.026,3.12-0.219,6.217-0.71,9.165c-0.548,3.798-1.942,8.263-3.254,11.16c-0.46,1.068-1.122,2.027-1.789,2.973
					c-0.93,1.229-1.43,1.936-2.694,3.137c-2.455,2.295-4.571,3.746-7.527,5.611c-1.283,0.792-2.908,1.786-3.83,2.041
					c-0.223-2.206-0.739-4.227-1.635-6.719c-0.701-1.962-1.476-3.904-2.489-5.729c-0.323-0.595-0.689-1.222-1.086-1.873
					c-0.007-0.845-0.03-1.69-0.08-2.535c-0.274-3.878-1.033-7.71-2.169-11.426c-0.799-2.474-1.567-5.087-3.294-7.092
					c-1.813-2.184-4.731-1.838-5.375,1.105c-0.867,6.045,5.994,14.998,9.504,20.974c-0.004,1.092-0.017,2.184-0.045,3.276
					c0.026,0.611-0.146,1.419-0.001,1.98c0.01,0.026,0.023,0.048,0.035,0.071c-0.174,1.842-0.514,3.687-0.951,5.464
					c-0.858,3.743-2.133,7.365-3.468,10.96c-1.874,4.93-3.694,9.374-6.233,14.237c-1.802,3.263-3.723,6.477-5.899,9.505
					c-1.697,2.189-3.589,4.554-5.959,6.666c-1.522,1.274-3.412,2.599-5.464,3.841c-7.807,4.255-17.288,5.786-25.963,9.092
					c-6.438,2.385-12.135,6.3-17.699,10.248c-2.736,1.865-5.566,4.306-7.936,6.069c0.589-1.025,1.403-2.214,1.971-3.191
					c1.994-3.197,4.001-6.39,5.799-9.703c2.17-3.956,4.094-8.039,6.168-12.045c3.414-6.577,6.986-13.071,10.298-19.701
					c1.853-3.736,3.712-7.469,5.441-11.264c1.86-4.205,3.583-8.468,5.446-12.671c2.57-5.663,5.495-11.157,8.364-16.672
					c4.059-7.838,8.193-15.637,12.227-23.488c1.568-3.049,3.144-6.095,4.585-9.207c1.027-2.26,2.16-4.587,2.214-7.115
					c-0.015-0.454-0.014-0.993-0.392-1.306c-0.27-0.192-0.625-0.378-0.966-0.297c-0.228,0.079-0.463,0.136-0.681,0.239
					c-0.895,0.549-1.541,1.395-2.224,2.175c-0.778,0.934-1.572,1.856-2.315,2.818c-4.822,6.406-8.561,13.546-12.191,20.673
					c-4.939,9.604-8.561,19.809-12.39,29.888c-2.714,7.473-5.29,14.333-8.608,21.258c-3.856,8.22-8.534,16.012-13.103,23.846
					c-4.44,7.765-9.132,15.392-13.277,23.321c-1.036,2.072-2.025,4.167-2.99,6.273c-0.136,0.271-0.285,0.604-0.434,0.925
					c-0.01-0.07-0.022-0.144-0.039-0.227c-0.606-5.49-1.469-10.986-3.365-16.196c-2.027-5.593-4.689-10.948-7.72-16.062
					c-2.019-3.507-4.502-7.039-5.501-10.514c-0.459-1.547-0.448-2.437-0.664-4.181c-0.367-3.581,0.773-6.21,2.507-9.297
					c2.863-4.087,7.881-7.759,12.136-11.207c6.359-5.062,12.576-10.301,18.611-15.746c5.867-5.307,11.769-10.884,15.532-17.939
					c1.813-3.649,3.057-8.029,1.601-12.007c-0.688-2.131-3.017-3.161-5.095-3.396c-2.073-0.076-4.164,0.369-6.069,1.178
					c-2.735,1.231-5.047,3.216-7.314,5.144c-3.132,2.673-5.639,5.975-8.013,9.316c-5.024,7.176-8.803,15.129-12.218,23.172
					c-0.09,0.22-0.177,0.442-0.266,0.663c-0.096-1.65-0.359-3.289-0.741-4.895c-1.625-6.205-4.82-11.361-6.627-17.155
					c-0.814-2.39-1.482-4.828-2.047-7.288c-0.699-3.101-1.151-5.306-1.253-8.443c-0.059-3.033-0.08-6.075,0.17-9.1
					c0.438-5.142,2.537-12.257,4.528-16.814c2.77-6.292,5.856-12.474,9.809-18.116c1.99-2.829,3.54-4.962,6.028-7.535
					c3.718-3.593,7.154-6.142,11.246-8.939c4.291-2.918,8.195-4.414,13.11-5.805c8.024-2.235,16.929-1.987,24.96,1.06
					c7.818,2.952,14.912,9.027,19.086,16.74c1.515,2.555,2.21,5.168,3.096,8.293c0.38,1.415,0.705,2.846,1.161,4.239
					c0.298,0.966,0.823,2.245,1.969,2.393c1.301,0.269,2.419-0.573,3.54-1.093c1.527-0.772,3.056-1.541,4.606-2.267
					c3.333-1.743,7.637-2.598,11.16-1.715c3.369,0.822,5.784,1.963,8.672,3.994c3.877,2.499,7.362,5.899,9.96,9.398
					c3.071,4.238,5.27,8.221,6.633,12.988c0.867,3.599,1.226,6.346,1.375,9.826c0.134,5.418-0.103,10.836-0.222,16.252
					c0.015,4.638-0.03,9.451,1.563,13.867c2.148,4.954,6.17,8.736,9.755,12.659c3.995,4.225,6.876,8.356,8.345,14.021
					c0.184,0.794,0.344,1.592,0.495,2.393c-0.287,0.266-0.575,0.536-0.86,0.806c-0.662-0.785-1.357-1.544-2.087-2.266
					c-2.373-2.444-5.061-4.553-8.033-6.215c-1.036-9.561-5.38-10.977-10.494-15.034c-2.473-1.962-2.663-4.094-3.111-7.358
					c-0.236-1.553-0.36-3.282-0.804-5.692C221.304,149.658,220.548,147.633,219.861,145.592z M209.831,118.713
					c0.024-0.044,0.05-0.087,0.077-0.128c0.007-0.006,0.017-0.017,0.031-0.034c0.007,0,0.014,0.001,0.021,0.001
					c0.029,0.007,0.067,0.017,0.115,0.03c0.013,0.004,0.023,0.007,0.035,0.011c0.068,0.032,0.134,0.069,0.195,0.113
					c0.12,0.124,0.348,0.359,0.377,0.413c0.076,0.073,0.114,0.134,0.108,0.134c0.017,0.022,0.034,0.045,0.051,0.067
					c1.848,2.443,3.067,6.081,3.825,9.646c0.37,1.728,0.636,3.492,0.812,5.268c-1.478-3.393-3.036-6.754-4.528-10.137
					C210.333,122.753,209.162,119.539,209.831,118.713z M189.208,156.294c-3.693-5.7-8.52-12.56-8.006-17.28
					c0.417-1.791,1.977-2.012,3.581,0.602c1.567,2.707,2.365,5.762,3.244,9.16C188.656,151.486,189.04,153.729,189.208,156.294z
					 M245.233,189.347c-0.765,0.73-1.468,1.4-2.024,1.886c-0.228,0.162-0.328,0.237-0.426,0.281c-0.801-0.698-2.551-2.8-3.094-3.547
					c-1.73-2.178-2.507-4.093-3.044-6.121c1.344,0.821,2.597,1.704,3.629,2.586C242.026,185.966,243.72,187.576,245.233,189.347z
					 M177.834,229.264c0.383-3.809,1.162-7.932,2.326-12.086c1.41-4.783,2.994-8.857,5.007-13.035
					c1.272-2.706,2.644-5.363,4.103-7.973c1.925-3.148,4.17-6.378,6.123-8.834c4.741-5.734,10.164-9.443,17.267-10.996
					c5.274-0.915,11.439,0.402,17.233,2.275c1.691,0.573,3.583,1.435,5.393,2.44c0.169,0.749,0.347,1.471,0.546,2.122
					c1.151,3.606,3.674,6.601,6.288,9.262c0.902,0.709,1.856-0.443,2.515-0.996c0.434-0.402,0.864-0.809,1.293-1.217
					c0.751,0.984,1.517,2.086,2.27,3.286c0.174,0.968,0.36,1.933,0.576,2.892c0.584,2.842,1.57,5.576,2.667,8.256
					c2.267,5.985,4.359,12.053,6.056,18.226c1.178,4.674,1.907,9.792,2.454,14.002c0.881,6.389,1.549,12.814,2.678,19.166
					c1.366,7.068,3.385,13.986,5.818,20.757c2.089,6.182,4.725,12.17,7.915,17.864c2.386,4.285,4.348,8.129,5.855,12.513
					c0.659,1.918,1.367,3.842,1.66,5.857c0.037,0.354,0.075,0.707,0.112,1.061c0.055,0.548,0.044,1.101,0.07,1.652
					c0.002,0.555-0.009,1.111-0.012,1.666c0,0.423-0.037,0.845-0.059,1.267c-0.024,0.346-0.059,0.691-0.103,1.036
					c-0.771,5.39-2.699,10.76-4.702,15.249c-0.971,2.189-2.326,4.927-3.58,7.181c-1.57-0.02-3.141-0.031-4.711-0.035
					c-1.051-2.137-2.356-4.145-3.858-5.995c-2.221-2.503-4.881-4.58-7.587-6.533c-6.065-4.432-12.62-8.124-18.866-12.287
					c-4.065-2.678-8.286-5.115-12.328-7.826c-0.416-5.046-0.919-10.084-1.594-15.103c-0.97-7.345-2.271-14.745-5.303-21.554
					c-0.762-1.837-1.635-3.626-2.719-5.296c-0.834-1.392-1.878-2.652-3.161-3.653c-1.073-0.741-2.224-1.389-3.44-1.861
					c-1.343-0.465-2.76-0.645-4.145-0.937c-1.488-0.292-2.463-2.448-3.984-4.268c-1.673-2.016-3.591-3.861-5.768-5.326
					c-4.662-3.213-10.095-5.051-15.566-6.353c-1.352-0.307-2.714-0.584-4.082-0.829c-0.159-0.804-0.308-1.613-0.444-2.429
					C177.615,238.641,177.496,233.244,177.834,229.264z M274.763,343.616c-0.453,0.759-0.876,1.412-1.24,1.9
					c-0.193,0.175-0.408,0.313-0.643,0.417c-0.038,0.005-0.076,0.009-0.113,0.014c-0.006-0.003-0.012-0.006-0.018-0.009
					l-0.128-0.127l-0.042-0.064c-0.38-0.612-0.62-1.302-0.924-1.953c-0.028-0.067-0.059-0.133-0.087-0.2
					C272.631,343.597,273.697,343.604,274.763,343.616z M218.51,285.527c-1.603-3.947-3.364-7.902-5.963-11.306
					c-1.156-1.384-2.498-2.763-4.339-3.119c-1.764-0.447-3.508,0.31-5.072,1.071c-1.234,0.662-2.191,1.711-3.21,2.65
					c-1.021,1.014-2.013,2.058-2.962,3.14c-0.378,0.428-0.753,0.858-1.127,1.289c-4.13-5.102-7.802-10.39-10.951-16.493
					c-2.77-5.302-4.778-10.968-6.094-17.01c0.649,0.122,1.3,0.253,1.955,0.392c4.782,1.061,9.288,2.387,13.271,4.487
					c1.131,0.579,3.491,2.111,3.985,2.434c1.725,1.268,4.294,3.828,5.139,5.027c1.184,1.419,2.041,3.338,3.787,4.154
					c0.784,0.313,1.649,0.358,2.468,0.543c1.503,0.317,2.449,0.546,3.518,1.178c1.035,0.568,1.655,0.901,2.247,1.489
					c1.098,1.068,1.484,1.507,2.216,2.714c0.65,1.037,1.279,2.091,1.797,3.202c1.933,4.036,3.518,8.693,4.479,13.538
					c1.372,6.488,1.913,12.111,2.616,18.638c0.173,1.624,0.317,3.251,0.446,4.88c-0.145-0.101-0.292-0.199-0.436-0.301
					c-1.054-0.731-2.077-1.482-3.087-2.245C222.855,298.883,221.156,292.002,218.51,285.527z M221.608,304.66
					c-3.345-2.628-6.536-5.443-9.859-8.492c-4.888-4.595-9.71-9.284-13.926-14.514c-0.349-0.413-0.694-0.827-1.037-1.242
					c0.041-0.047,0.081-0.095,0.123-0.142c1.577-1.839,3.189-3.652,4.954-5.314c1.445-1.445,2.426-1.945,4.413-2.524
					c0.917-0.186,0.895-0.138,1.778,0.032c0.702,0.133,0.818,0.258,1.596,0.733c0.893,0.768,2.321,2.309,3.108,3.749
					c2.223,3.627,3.572,6.808,4.983,10.566C219.933,293.334,221.206,298.765,221.608,304.66z M223.246,307.559
					c1.181,0.881,2.381,1.734,3.598,2.564c0.08,1.083,0.158,2.166,0.234,3.249c0.176,2.457,0.416,4.914,0.328,7.38
					c-0.123,5.256-0.863,9.477-1.956,14.636c-0.61,2.759-1.244,5.517-2.108,8.21c-0.275,0.807-0.548,1.572-0.823,2.312
					c-0.32,0.053-0.64,0.104-0.96,0.158c-1.576,0.274-3.149,0.565-4.719,0.877c2.297-7.219,3.835-14.677,4.988-22.158
					C222.602,319.078,223.346,313.328,223.246,307.559z M226.532,337.407c1.623-6.983,2.796-14.187,2.219-21.372
					c-0.114-1.626-0.235-3.251-0.363-4.876c2.211,1.462,4.461,2.865,6.72,4.252c3.626,2.255,7.173,4.633,10.778,6.922
					c2.66,1.684,5.352,3.318,7.985,5.044c4.297,2.895,7.962,5.401,11.499,8.961c0.939,1.033,1.184,1.339,2.032,2.59
					c0.717,1.023,1.383,2.081,1.953,3.192c-5.302,0.009-10.603,0.125-15.9,0.405c-9.813,0.449-19.585,1.566-29.283,3.114
					C225.137,342.952,225.932,340.203,226.532,337.407z M147.775,435.408c-0.608-0.039-2.55-1.139-0.737-6.68
					c0.215-0.658,0.651-1.276,0.967-1.732c0.441,1.184,0.831,2.386,1.101,3.62C149.994,435.264,148.533,435.457,147.775,435.408z
					 M210.552,358.39c-2.291,4.618-5.13,8.957-8.116,13.152c-3.043,4.265-7.091,9.822-9.732,13.358
					c-3.339,4.243-6.835,8.368-10.474,12.357c-3.221,3.38-6.502,6.059-9.948,8.536c-3.644,2.527-7.515,4.707-11.132,7.274
					c-2.755,1.996-5.291,4.271-7.861,6.493c-1.549,1.378-3.077,2.781-4.52,4.271c-0.067,0.065-0.133,0.132-0.199,0.198
					c-0.163-0.386-2.671-5.486-5.926-9.986c-3.209-4.435-6.873-8.544-10.918-12.233c-3.995-3.761-8.493-6.962-12.355-10.864
					c-1.19-1.283-2.511-2.513-3.161-3.513c-1.024-1.678-1.642-2.853-2.128-4.358c-0.336-1.175-0.326-1.852-0.43-3.362
					c-0.122-1.948,0.112-2.886,0.632-4.858c0.306-1.162,0.671-2.311,1.135-3.42c0.579-1.278,1.397-2.43,2.13-3.621
					c0.944-1.426,2.027-3.107,2.763-3.93c2.111-2.323,4.491-4.395,6.866-6.443c4.61-3.665,9.428-7.222,14.533-10.988
					c3.232-2.382,6.462-4.765,9.66-7.193c2.989-2.28,6.022-4.607,8.423-7.523c0.499-0.669,0.867-1.42,1.206-2.178
					c0.332-0.738,0.68-1.495,0.77-2.308c0.116-1.046-0.237-2.152-0.858-2.993c-0.467-0.654-1.175-1.078-1.863-1.468
					c-0.99-0.513-1.995-1.059-3.098-1.276c-1.514-0.286-3.063-0.245-4.597-0.277c-4.694,0.1-9.29,1.261-13.747,2.664
					c-5.045,1.497-9.789,3.836-14.41,6.324c-3.228,1.808-6.271,3.937-9.333,6.01c-2.51,1.744-4.904,3.651-7.266,5.59
					c-1.961,1.652-3.988,3.277-5.478,5.39c-1.336,1.822-2.667,3.664-3.714,5.671c-0.91,1.887-1.59,3.884-2.051,5.927
					c-0.04-0.124-0.082-0.248-0.123-0.372c-1.684-5.389-3.765-12.328-4.323-17.179c-0.204-1.828-0.488-3.658-0.437-5.502
					c0.095-2.35,0.707-5.508,1.668-7.47c2.083-3.997,4.697-6.793,8.343-9.691c2.427-2.029,7.007-4.518,10.5-6.176
					c3.682-1.711,8.094-3.452,12.556-4.571c7.013-1.64,13.117-2.578,20.174-2.846c3.245-0.157,6.499-0.158,9.733-0.48
					c2.425-0.201,4.858-0.499,7.136-1.402c1.228-0.44,2.463-0.909,3.582-1.586c1.081-0.785,2.073-1.731,2.801-2.857
					c1.778-3.054,0.338-6.709-1.563-9.344c-1.363-1.706-3.208-2.976-5.002-4.191c-2.919-1.934-6.43-2.516-9.824-3.056
					c-2.341-0.45-4.726-0.478-7.1-0.377c-2.965,0.127-5.92,0.434-8.856,0.865c-7.378,1.097-14.749,2.79-21.513,6.01
					c-1.654,0.803-3.3,1.626-4.894,2.543c-1.912,0.991-4.253,2.452-5.485,2.337c-0.007-0.089-0.008-0.199,0.018-0.254
					c0.941-3.09,3.726-8.313,5.972-12.105c1.745-2.933,3.674-5.753,5.644-8.539c2.073-2.836,3.594-5.007,5.86-7.487
					c7.361-8.206,16.48-13.964,26.637-17.354c5.595-1.787,10.772-2.615,16.326-3.012c4.959-0.315,9.491-0.007,14.07,0.759
					c1.37,6.482,3.647,12.768,6.755,18.622c3.054,5.768,6.828,11.122,10.947,16.179c-2.855,3.336-5.592,6.771-8.098,10.38
					c-2.298,3.186-4.416,6.495-6.478,9.837c-2.318,3.678-4.558,7.404-6.516,11.288c-4.536,8.734-8.156,17.892-11.436,27.161
					c-4.933,14.303-9.177,28.865-12.071,43.725c-0.795,3.961-1.433,7.951-2.038,11.944c-0.224,1.465-0.447,2.93-0.668,4.396
					c-0.066,0.434-0.132,0.869-0.189,1.304c-0.026,0.26-0.12,0.535,0.015,0.777c0.348,0.828,1.637,0.633,1.651-0.332
					c0.661-4.51,1.604-11.189,2.618-16.486c1.225-6.476,2.712-12.9,4.341-19.285c2.794-10.429,6.031-20.746,9.766-30.876
					c2.372-6.291,4.486-11.693,7.372-17.526c2.036-4.165,4.135-8.305,6.605-12.234c1.038-1.701,2.091-3.393,3.15-5.082
					c4.059-6.505,8.148-12.236,12.924-17.837c0.324,0.389,0.649,0.777,0.976,1.163c3.738,4.616,7.966,8.793,12.249,12.898
					c4.024,3.813,8.171,7.513,12.567,10.894c0.008,0.194,0.017,0.386,0.023,0.582c0.088,3.549-0.167,7.093-0.559,10.618
					c-0.447,4.036-0.842,7.125-1.604,11.229c-1.151,6.299-2.624,12.553-4.581,18.51c-4.421,0.934-8.797,2.066-13.071,3.544
					c-1.738,0.656-3.612,1.065-5.193,2.059c-0.164,0.23-0.396,0.415-0.486,0.688c-0.171,0.448-0.093,0.922,0.134,1.336
					c0.574,0.74,1.548,1.038,2.41,1.323c3.953,1.01,8.074,1.122,12.128,1.374C210.784,357.896,210.671,358.145,210.552,358.39z
					 M211.522,356.303c-2.827-0.123-5.651-0.31-8.462-0.634c-1.088-0.124-4.643-0.652-5.502-1.444
					c-0.009-0.023-0.018-0.047-0.026-0.07c0.004-0.019,0.008-0.037,0.012-0.056c0.339-0.374,0.678-0.414,1.192-0.641
					c2.706-1.005,5.455-1.894,8.22-2.722c2.479-0.701,4.985-1.316,7.501-1.865C213.575,351.415,212.602,353.899,211.522,356.303z
					 M216.357,356.462c-1.015-0.025-2.03-0.055-3.044-0.09c1.12-2.587,2.108-5.233,3.025-7.897c1.867-0.382,3.737-0.729,5.603-1.049
					c-0.482,1.225-0.977,2.393-1.503,3.561c-0.875,1.875-1.84,3.706-2.878,5.496C217.16,356.475,216.758,356.47,216.357,356.462z
					 M351.515,350.694c1.656,0.887,2.44,1.627,3.794,2.792c1.343,1.231,1.873,1.909,2.761,3.58c1.659,2.842,1.953,5.933,2.337,8.625
					c0.809,7.976,0.495,16.011,0.53,24.015c-0.07,10.397-0.22,21.228-1.78,30.976c-0.672,4.047-1.784,8.006-2.89,11.952
					c-1.382,4.509-2.335,8.835-5.998,11.55c0.041-0.032,0.082-0.063,0.123-0.095c-0.271,0.202-0.554,0.384-0.85,0.547
					c-0.253,0.141-0.514,0.264-0.781,0.375c-0.143,0.055-0.286,0.11-0.429,0.165c-0.401,0.141-0.788,0.327-1.201,0.424
					c-54.44,12.773-127.1,4.964-143.762-2.934c-1.528-0.724-3.776-1.845-5.075-3.679c-0.021-0.058-0.226-0.429-0.284-0.514
					c-0.178-0.547-0.206-0.425,0.037-1.07c0.02-0.014,0.121-0.178,0.18-0.274c0.098-0.126,0.201-0.247,0.313-0.36
					c0.47-0.523,0.531-0.492,1.206-0.877c0.105-0.043,0.21-0.085,0.314-0.128c0.508-0.175,1.014-0.358,1.52-0.538
					c0.108-0.039,0.218-0.074,0.327-0.112c3.855,3.884,9.288,4.091,14.234,4.5c94.8,7.844,123.313-3.682,120.504-6.02
					c-1.464-1.219-9.484-2.007-14.311-2.458c-4.812-0.436-9.621-0.898-14.437-1.28c-15.87-1.184-31.789-1.791-47.703-1.848
					c-12.842-0.146-25.714,0.198-38.458,1.896c-4.73,0.59-9.446,1.315-14.098,2.366c-1.644,0.374-3.28,0.788-4.888,1.296
					c-0.08-0.114-0.158-0.23-0.234-0.35c-1.206-1.973-2.008-3.551-2.618-5.33c-1.099-3.49-1.801-7.088-2.369-10.698
					c-0.866-4.955-1.389-9.967-1.419-15.429c0.074-3.504,0.482-7.485,0.909-10.328c0.414-2.547,0.622-5.155,1.347-7.638
					c0.337-1.121,0.958-2.286,1.876-3.584c1.46-1.589,4.566-4.452,6.462-6.591c2.23-2.532,3.933-4.752,5.549-6.844
					c2.219-2.837,4.264-5.817,6.115-8.911c3.033,0.047,6.067,0.057,9.1,0.075c13.602-0.01,27.207-0.457,40.776-1.415
					c20.536-1.868,41.127-3.392,61.532-6.44c4.439-0.67,8.883-1.309,13.302-2.103C346.054,348.626,348.934,349.487,351.515,350.694z
					 M203.585,434.57c2.343-0.709,4.738-1.239,7.137-1.728c16.414-3.172,33.732-3.89,50.856-3.645
					c9.011,0.025,18.02,0.262,27.02,0.698c7.629,0.318,15.255,0.75,22.863,1.414c5.628,0.534,11.27,0.943,16.883,1.617
					c1.779,0.229,3.581,0.552,5.453,1.035c3.738,0.675-25.587,11.469-118.398,4.083C210.748,437.674,206.197,437.171,203.585,434.57
					z M342.831,341.952c2.847,0.236,4.908,0.488,7.628,1.058c0.327,0.079,0.646,0.182,0.958,0.306
					c0.287,0.125,0.557,0.28,0.809,0.468c0.123,0.124,0.246,0.248,0.369,0.372c0.03,0.057,0.061,0.114,0.091,0.171
					c-0.017,0.022-0.035,0.045-0.052,0.068c-0.18,0.13-0.372,0.239-0.577,0.326c-1.316,0.498-2.71,0.756-4.08,1.062
					c-1.357,0.285-2.757,0.556-4.178,0.817c-0.874-0.205-1.751-0.396-2.634-0.561c-7.55-1.24-15.199-1.641-22.823-2.16
					C326.46,342.601,334.326,341.387,342.831,341.952z M332.594,346.456c2.283,0.222,4.643,0.496,6.991,0.874
					c-5.954,0.982-12.06,1.797-17.246,2.549c-12.472,1.606-24.996,2.783-37.524,3.86c-5.601,0.486-11.195,1.045-16.8,1.486
					c-7.198,0.493-14.406,0.858-21.619,1.069c-9.075,0.278-18.155,0.357-27.233,0.216c0.565-0.985,1.114-1.979,1.638-2.986
					c1.036-2.08,1.976-4.208,2.811-6.376c4.55-0.741,9.067-1.329,13.451-1.863c10.959-1.275,21.97-1.698,32.99-1.695
					c0.285,0.627,0.56,1.258,0.842,1.886c0.267,0.603,0.541,1.236,1.096,1.628c1.595,0.856,2.958-1.021,3.667-2.259
					c0.234-0.402,0.465-0.806,0.693-1.211c0.991,0.013,1.982,0.03,2.973,0.049c-0.589,0.566-1.178,1.132-1.764,1.701
					c-0.85,0.839-1.691,1.686-2.524,2.542c-0.71,0.751-1.469,1.491-1.949,2.418c-0.285,0.475-0.473,1.043-0.326,1.595
					c0.164,0.461,0.736,0.64,1.19,0.619c1.895-0.107,3.762-0.515,5.63-0.833c7.411-1.278,14.688-3.184,22.004-4.899
					c3.284-0.734,6.6-1.308,9.919-1.859C318.54,345.366,325.573,345.833,332.594,346.456z M296.928,344.214
					c3.029,0.147,6.059,0.296,9.088,0.454c-1.464,0.271-2.925,0.557-4.381,0.872c-6.741,1.55-13.428,3.343-20.238,4.583
					c-2.093,0.385-4.182,0.797-6.291,1.087c0.355-0.057-0.134,0.022-0.276,0.031c-0.272,0.028-0.546,0.061-0.82,0.067
					c0.013-0.044,0.026-0.087,0.039-0.131c0.111-0.233,0.237-0.457,0.386-0.668c0.334-0.551,0.223-0.27,0.439-0.574
					c1.978-2.161,4.089-4.192,6.205-6.217C286.367,343.835,291.651,344.015,296.928,344.214z M337.318,195.492
					c2.647,5.068,4.581,10.269,6.042,16.123c0.759,3.227,0.862,6.233,0.93,9.822c0.063,3.345-0.185,6.695-0.625,10.011
					c-0.762,6.045-2.129,12.89-4.387,19.112c-3.383,9.533-8.143,18.509-13.408,27.526c-2.761,4.787-5.54,9.563-8.46,14.255
					c-5.402,8.703-10.863,17.377-16.654,25.828c-3.984,5.749-7.57,10.83-12.083,16.042c-2.477,2.814-5.156,5.436-7.856,8.034
					c-1.22-0.026-2.44-0.049-3.66-0.068c1.133-2.076,2.196-4.19,3.157-6.35c2.35-5.274,4.328-10.793,5.019-16.552
					c0.184-2.276,0.2-4.584-0.147-6.845c-0.222-1.53-0.747-2.99-1.213-4.457c-1.034-3.052-2.243-6.045-3.692-8.925
					c-2.026-4.006-4.342-7.863-6.23-11.939c-1.768-3.788-3.391-8.092-4.867-12.491c-1.519-4.333-2.877-8.719-3.914-13.194
					c-2.939-11.775-3.214-23.438-5.627-35.558c-1.317-6.445-3.623-12.637-5.77-18.841c-0.953-2.65-2.105-5.23-2.922-7.927
					c0.055,0.139,0.109,0.279,0.161,0.415c0.449,0.931,0.986,3.974,2.511,2.811c0.41-0.496,0.509-1.164,0.686-1.765
					c0.192-0.738,0.375-1.479,0.561-2.219c0.927-3.635,1.7-7.312,2.79-10.904c0.897-2.786,1.83-5.1,2.985-7.367
					c2.527-4.359,5.655-7.546,9.736-10.815c2.463-2.029,7.611-4.996,10.788-6.018c2.919-0.893,5.45-1.258,8.127-1.398
					c2.86-0.033,5.089,0.272,7.584,0.631c2.137,0.287,4.265,0.721,6.284,1.492c2.834,1.091,5.106,2.126,7.994,3.707
					c0.877,0.466,1.968,1.192,2.978,1.897c0.302,1.986,0.694,3.956,1.251,5.895c0.686,2.074,1.467,4.125,2.483,6.061
					c1.951,3.447,4.921,6.322,8.456,8.115c2,0.997,4.184,1.528,6.379,1.892c0.895,0.143,1.803,0.27,2.715,0.355
					C336.105,193.142,336.757,194.394,337.318,195.492z M461.254,190.634c-0.009,0.03-0.02,0.069-0.035,0.112
					c-0.04,0.063-0.309,0.594-0.422,0.711c-0.493,1.029-1.76,1.467-2.935,1.591c-1.118-0.107-2.536-0.607-3.903-1.608
					c-0.399-0.31-0.914-0.907-1.447-1.625c0.893-0.105,1.847-0.185,2.715-0.174c2.269,0.054,3.346,0.101,5.38,0.534
					c0.108,0.031,0.217,0.056,0.323,0.09c0.037,0.02,0.072,0.041,0.107,0.065c0.033,0.031,0.085,0.081,0.133,0.133
					c0.022,0.033,0.05,0.077,0.078,0.125c0.002,0.009,0.005,0.018,0.007,0.028C461.255,190.622,461.254,190.628,461.254,190.634z"/>
			</g>
		</g>
	</g>
</g>
</svg>
